<svg preserveAspectRatio="none" overflow="visible" style="display: block;" width="104" height="64" viewBox="0 0 104 64" fill="none" xmlns="http://www.w3.org/2000/svg">
<g id="Layer_1" clip-path="url(#clip0_0_282)">
<path id="Vector" d="M92.1214 37.6209L94.0806 36.2226L94.6965 35.7222L95.3095 35.2163L96.8448 33.7012L97.515 32.9562L98.7868 31.2827L99.7063 29.6675L100.019 28.967L100.245 28.2609L100.526 27.0516L100.606 26.0313C100.695 24.8777 100.159 23.5544 99.2938 22.7983L98.4746 22.0838L97.6153 21.4111L95.8336 20.2407L95.0517 19.7987L93.7684 19.1426L92.3047 18.4754L91.348 18.0918L89.4604 17.4107L87.4926 16.8186L86.2322 16.4878L84.9776 16.1764L82.6976 15.6899L80.5464 15.2813L78.2406 14.9755L76.5163 14.767L74.7718 14.5752L73.1305 14.4612L71.5609 14.3528L70.481 14.2499L68.6249 14.1749L65.1303 14.0748L64.1965 14.0192L60.7478 14.0637L58.5308 14.1471L56.7119 14.261L55.2339 14.3611L54.1941 14.4223L53.1572 14.4973L52.3323 14.5752L50.7912 14.7003L49.7658 14.7976L48.4109 14.8949C48.0242 14.9227 47.6605 15.0088 47.2881 15.2285L49.3762 16.1903L50.3444 16.6462L52.8507 17.8472C53.5439 18.1808 54.3717 19.3205 54.2743 20.1239L54.154 21.1303C54.1282 21.3332 53.8876 21.7308 53.7587 21.9198C53.6699 22.0505 53.2317 22.1756 53.0684 22.1227L51.8453 21.728L51.0691 21.4722L50.2814 21.2248L48.5942 20.6577L47.967 20.4742L47.0274 20.1823L45.9017 19.8571L41.1784 18.7479L40.3362 18.5672L38.0991 18.0473L35.9681 17.5525C35.7532 17.5025 35.3551 17.3106 35.1632 17.1716C34.9942 17.0493 34.7306 16.6546 34.6877 16.4572C34.5588 15.8512 34.6877 15.2146 34.7736 14.6196L34.8653 13.9775L35.229 12.1177C35.3436 11.5422 35.8248 11.0891 36.3633 10.8278C37.4031 10.3191 40.1615 10.3886 43.5701 8.23132L44.6242 7.43625L45.1341 7.03594L47.7493 4.47005L48.8778 3.15513L49.8259 1.88469L51.1808 -0.00289115C51.9943 1.22863 52.2034 3.08285 51.7938 4.28657L51.4873 5.18728L50.923 6.22976L49.3934 8.38144C49.3161 8.48986 49.2502 8.74005 49.2072 8.95411L50.7855 8.84013L51.9255 8.74005L52.7476 8.65665L54.3889 8.52878L56.4455 8.38144L57.4853 8.31472L61.9165 8.2063L65.686 8.25912L67.5908 8.34808L68.8139 8.4426L69.8594 8.53434L71.3718 8.66777L73.7664 8.95411L75.1098 9.1904L77.0949 9.4962C79.8017 9.91319 82.4083 10.5665 84.9977 11.4199L86.9369 12.0593L89.3831 12.9962L90.1851 13.3242L91.3222 13.8079L92.4995 14.3694L93.0409 14.6391L94.9801 15.7705L95.5243 16.1292L96.3636 16.7213L97.5064 17.6192C98.8097 18.645 99.9326 19.8849 100.838 21.2665L101.68 22.5564L102.284 23.6573L102.765 24.6997L103.616 26.9515L103.834 27.969C104.066 29.0504 104.003 30.1262 103.891 31.2298C103.863 31.5106 103.828 31.8331 103.745 32.0666L103.416 32.9757L102.857 34.2266L102.439 35.03L100.631 37.5792L100.104 38.1714L97.7127 40.5538L97.2802 40.9374L96.6042 41.4823C93.757 43.7813 89.4031 45.9747 85.9143 47.3091L84.9375 47.6816L83.6113 48.182L81.6492 48.877L80.7068 49.1716L78.8364 49.7582L77.4586 50.1307L75.7572 50.57L73.9698 51.0036L72.3142 51.3317L71.3317 51.3845C71.1283 51.3956 70.7531 51.0286 70.6815 50.8257C70.3922 50.0056 70.3521 48.2181 70.7388 47.5843C70.8706 47.3647 71.2973 47.0005 71.5551 46.9004L73.4685 46.1582L74.5026 45.7606L75.4622 45.3909L76.5793 44.9711L77.9198 44.4763L79.478 43.887L80.6868 43.4533L83.9235 42.0855L85.5906 41.3155L86.8309 40.7039L89.4146 39.3028L90.5059 38.6662L92.1071 37.6126L92.1214 37.6209Z" fill="#FD9052"/>
<path id="Vector_2" d="M67.3989 53.2777L65.4683 53.7865C64.5059 54.0394 63.5721 54.2591 62.6526 54.6482C61.6443 55.0764 60.6991 55.5656 59.857 56.2439L58.1613 57.6061L56.8207 58.9099L55.5346 60.361L55.0677 60.917L54.4433 61.7065L53.3978 63.1966C53.1887 63.494 52.9395 63.7609 52.6674 64.0028C51.7221 62.2514 51.7479 60.3277 52.5986 58.6013L53.985 56.3607L54.8328 55.1514C54.1397 55.1042 53.478 55.1514 52.8135 55.2181L50.2756 55.4683L48.0099 55.6323L46.5519 55.713L44.3292 55.8047H39.3938L33.7768 55.46L30.5543 55.0875L29.3198 54.904L28.4003 54.7594C26.1632 54.4092 24.0035 53.9421 21.8151 53.3778L20.5662 53.0553L19.0538 52.6189L17.8565 52.2714L15.8772 51.6014L13.6029 50.723L12.0934 50.0613L11.0221 49.5081L9.02851 48.3433L7.81974 47.5177L7.12942 46.9923L5.43371 45.5245C4.1075 44.3791 3.08778 42.9919 2.16259 41.5046L1.46368 40.1953C0.575718 38.5273 0.163246 36.7509 0.0228917 34.8772C-0.106006 33.1592 0.243449 31.5107 1.01397 29.9595L1.96494 28.2804L2.38028 27.6911L2.99039 26.8766L3.80674 25.8674L4.33665 25.2892C4.9926 24.5748 5.67718 23.927 6.44197 23.3238L7.69657 22.3341C9.01419 21.2944 10.4406 20.4493 11.9158 19.632L13.623 18.6868L14.7172 18.1558L17.2579 17.0022L19.7327 16.0125L21.5459 15.3676L24.8256 14.3418C27.0254 13.6523 29.2281 13.202 31.4967 12.721C31.9092 12.6321 32.3904 12.6321 32.7513 12.6821L33.201 13.0991C33.5075 14.1666 33.602 16.0764 33.0177 16.688C32.6253 17.0995 32.0381 17.3191 31.4996 17.5192L25.7479 19.632L23.9691 20.3075L22.5112 20.8858L20.7066 21.6391L19.7041 22.0784L18.8104 22.5009L17.2837 23.2404C14.9492 24.3718 12.7293 25.645 10.6755 27.2185L9.57561 28.0608L8.68478 28.8003L7.43305 29.9873C6.79716 30.5906 6.25006 31.2355 5.73733 31.9416L5.18451 32.7033L4.70616 33.4456C3.738 34.9495 3.06773 37.3236 3.39713 39.0944C3.60623 40.2231 4.31374 41.0682 5.15873 41.791C5.83759 42.3692 6.49353 42.8946 7.26119 43.3589L8.15201 43.8954C10.8789 45.5356 15.3846 47.1424 18.5239 47.8235L21.0732 48.3767C23.7686 48.9632 26.4611 49.2663 29.231 49.4609L32.525 49.6916L35.2577 49.8223L41.6051 49.9863L45.1971 49.9223L47.2938 49.8L50.4761 49.5665L53.879 49.2551L55.8526 49.0856C56.1276 49.0633 56.3166 48.9883 56.5314 48.7325L55.3112 48.1543L51.4672 46.3918C50.9 46.1305 50.3816 45.7941 50.0321 45.2687C49.3705 44.2763 49.8345 42.3914 50.2813 42.0579C50.6079 41.816 51.1349 41.9411 51.4901 42.0634L55.1451 43.3227L55.9213 43.5646L57.6056 44.0511L61.209 44.9462L63.7153 45.5272L67.7684 46.478C68.3642 46.617 69.066 46.9533 69.1834 47.59C69.2665 48.0486 69.2808 48.6575 69.2092 49.1134L68.8826 51.215C68.811 51.6765 68.6306 52.1991 68.3527 52.5994C68.1809 52.8468 67.7197 53.1915 67.396 53.2777H67.3989Z" fill="#06969B"/>
<path id="Vector_3" d="M56.795 39.5114L55.2854 39.6866L51.198 39.706L44.8075 39.7171C44.4982 39.7171 44.1974 39.5837 44.0771 39.3891C43.9282 39.1528 43.9339 38.7469 44.1029 38.6052L45.1341 37.7489C45.5007 37.4431 45.6153 36.7982 45.7442 36.3478L46.2397 34.627L47.4227 30.56L48.3451 27.3325C48.5685 26.5569 47.6977 25.8591 48.1044 25.1919C48.2276 24.989 48.7375 24.8917 49.0296 24.8944L58.2615 24.9139C59.1495 24.9139 60.0317 25.2725 60.7937 25.6284C62.5753 26.4596 62.9906 28.3722 62.2344 30.0707C62.1371 30.2903 61.8907 30.6489 61.6959 30.8074L60.7937 31.5441C60.2723 31.9694 59.5362 32.0973 58.8688 32.3114L60.1606 33.1509C60.3926 33.301 60.6533 33.693 60.7679 33.9376C61.0772 34.6048 61.0228 35.3276 60.8882 36.0281C60.6161 37.4515 59.6765 38.5968 58.273 39.1083L56.7921 39.5114H56.795ZM55.3026 30.7796C55.6234 30.4849 55.9586 30.2347 56.1362 29.9373C56.8036 28.8309 56.8866 27.0294 55.8211 26.9544L54.8587 26.8877C54.386 26.8543 54.091 27.2407 53.9993 27.6244L53.5983 29.2673L53.1372 30.7129C52.9825 31.1994 54.2428 31.1855 55.3055 30.7768L55.3026 30.7796ZM54.8071 35.8308C55.0678 35.2136 55.0993 34.4714 54.8042 33.832C54.6667 33.5317 54.1311 33.3205 53.816 33.3094L52.8708 33.2788C52.5757 33.2704 52.2664 33.6235 52.2005 33.8848L51.7794 35.5222L51.2839 36.9344C51.218 37.1262 51.1951 37.5265 51.3928 37.6572C51.7938 37.9157 54.0394 37.6489 54.8071 35.8308Z" fill="white"/>
<path id="Vector_4" d="M35.9394 37.735C36.0024 38.2771 36.4922 38.5579 36.6355 39.0388C36.5381 39.4781 36.1313 39.6921 35.6931 39.6921H29.7552L28.5865 39.6004L28.3603 38.9332C28.3144 38.797 28.5837 38.5079 28.6839 38.4078C29.4516 38.0019 29.8698 37.3292 30.0445 36.5174L30.5859 34.6382L31.4738 31.5941L32.2214 29.0255L32.6396 27.6049C32.9633 26.5013 32.0897 25.8674 32.4363 25.1947C32.5308 25.0084 33.0177 24.8861 33.2612 24.8861H38.7379L41.1068 24.8833L42.2267 24.9473C43.3123 25.0112 44.375 25.3392 45.2 26.0592L45.8473 26.821C45.9533 26.9461 46.0822 27.2796 46.1338 27.4381C46.8556 29.6621 45.4291 32.5393 43.1261 33.5818C42.3671 33.9265 41.6252 34.1739 40.7974 34.2351L39.2506 34.3491L36.8646 34.4436C36.011 34.4769 35.7962 36.4451 35.9451 37.735H35.9394ZM40.8891 27.7467C40.7774 27.2824 40.4508 26.9739 39.9581 26.9405L39.1074 26.8821C38.9155 26.8682 38.5546 27.0906 38.4887 27.313L37.0221 32.3253C38.039 32.3948 38.8869 32.0695 39.5915 31.4718C40.7086 30.5238 41.2328 29.1728 40.8891 27.7467Z" fill="white"/>
<path id="Vector_5" d="M76.2785 34.4352C76.4847 34.9551 76.3329 35.5 76.1897 35.9559L75.3648 38.5746C75.1442 39.2696 74.3794 39.6921 73.6347 39.6921L64.6147 39.7005L62.0712 39.706C61.6902 39.706 61.4238 39.4225 61.4381 39.0361C61.4697 38.2771 62.6412 38.43 63.131 36.6926L63.4174 35.6807L64.208 32.948L64.5804 31.697L65.5743 28.2554C65.7691 27.5799 65.9696 26.9016 65.623 26.2205C65.4827 25.9453 65.328 25.4115 65.56 25.1641C65.6717 25.0446 66.0784 24.9334 66.2589 24.9334L72.5491 24.9167C72.9587 24.9167 73.2079 25.2503 73.1563 25.6311C73.1191 25.9036 72.9759 26.062 72.7066 26.1927C72.3371 26.3734 71.8788 26.7515 71.7499 27.1545L70.945 29.6926L69.3467 35.1247L69.0087 36.3145L68.6822 37.4793C69.4785 37.6127 70.1745 37.6238 70.8963 37.3292C71.8845 36.9289 72.4574 35.436 73.8982 34.3407C74.5971 33.8097 76.0608 33.8876 76.2785 34.4352Z" fill="white"/>
</g>
<defs>
<clipPath id="clip0_0_282">
<rect width="104" height="64" fill="white"/>
</clipPath>
</defs>
</svg>
