<svg preserveAspectRatio="none" overflow="visible" style="display: block;" width="102" height="50" viewBox="0 0 102 50" fill="none" xmlns="http://www.w3.org/2000/svg">
<g id="pbl-training-primary 3" clip-path="url(#clip0_0_515)">
<g id="Group">
<path id="Vector" d="M0.217694 46.9606H1.37095V49.9375H2.20026V46.9606H3.34834V46.2369H0.217694V46.9606Z" fill="white"/>
<path id="Vector_2" d="M6.9377 48.2805C7.12559 48.1894 7.27202 48.0631 7.37568 47.9004C7.48064 47.7377 7.53247 47.545 7.53247 47.3212C7.53247 47.1116 7.48064 46.9241 7.37827 46.7601C7.2759 46.5961 7.13207 46.4672 6.94807 46.3748C6.76406 46.2824 6.54767 46.2356 6.30146 46.2356H4.79316V49.9362H5.61728V48.4159H5.70151L6.79646 49.9362H7.77219L6.5982 48.3872C6.7213 48.3651 6.83533 48.33 6.9377 48.2805ZM5.61728 46.8812H6.20687C6.36625 46.8812 6.49065 46.9254 6.58006 47.0127C6.66817 47.0999 6.71353 47.2105 6.71353 47.3433C6.71353 47.4826 6.66817 47.5945 6.57747 47.6765C6.48676 47.7585 6.36237 47.8002 6.20169 47.8002H5.61728V46.8825V46.8812Z" fill="white"/>
<path id="Vector_3" d="M10.3703 46.2369L8.91509 49.9375H9.76513L10.01 49.2724H11.451L11.6894 49.9375H12.5602L11.1154 46.2369H10.369H10.3703ZM10.2562 48.6007L10.7383 47.2873L11.2099 48.6007H10.2562Z" fill="white"/>
<path id="Vector_4" d="M14.8045 46.2369H13.9804V49.9375H14.8045V46.2369Z" fill="white"/>
<path id="Vector_5" d="M18.8228 48.4796L17.0799 46.2369H16.5007V49.9375H17.3248V47.7221L19.0418 49.9375H19.6521V46.2369H18.8228V48.4796Z" fill="white"/>
<path id="Vector_6" d="M22.1659 46.2369H21.3418V49.9375H22.1659V46.2369Z" fill="white"/>
<path id="Vector_7" d="M26.1842 48.4796L24.4413 46.2369H23.8621V49.9375H24.6862V47.7221L26.4032 49.9375H27.0135V46.2369H26.1842V48.4796Z" fill="white"/>
<path id="Vector_8" d="M30.3735 48.5383L31.4244 48.5552C31.4049 48.6294 31.3803 48.6997 31.3466 48.7634C31.265 48.9209 31.1484 49.0407 30.9968 49.1227C30.8452 49.2047 30.6637 49.2464 30.4512 49.2464C30.2387 49.2464 30.0508 49.1969 29.8876 49.0967C29.7243 48.9964 29.596 48.8598 29.5014 48.6853C29.4081 48.5109 29.3602 48.3105 29.3602 48.0827C29.3602 47.8549 29.4081 47.6505 29.504 47.4774C29.5999 47.3043 29.7321 47.1702 29.9031 47.0739C30.0729 46.9775 30.2659 46.9294 30.4823 46.9294C30.6806 46.9294 30.8607 46.9684 31.0227 47.0478C31.1847 47.1259 31.3233 47.2431 31.4373 47.3967L32.001 46.8305C31.83 46.6274 31.6149 46.4686 31.3544 46.3514C31.0939 46.2343 30.805 46.1757 30.4888 46.1757C30.2141 46.1757 29.9575 46.2252 29.7191 46.3228C29.4807 46.4204 29.2708 46.5558 29.0906 46.7289C28.9092 46.902 28.7693 47.1025 28.6682 47.3316C28.5671 47.5607 28.5166 47.8106 28.5166 48.084C28.5166 48.3573 28.5658 48.6033 28.6656 48.8337C28.7654 49.0641 28.9015 49.2672 29.0751 49.4416C29.2487 49.616 29.4535 49.754 29.688 49.8529C29.9225 49.9519 30.1752 50.0026 30.4473 50.0026C30.8128 50.0026 31.1354 49.9245 31.4153 49.7696C31.6952 49.6147 31.9142 49.3843 32.0723 49.0811C32.2304 48.7778 32.3094 48.4055 32.3094 47.9642V47.8432H30.3735V48.5409V48.5383Z" fill="white"/>
<path id="Vector_9" d="M36.8266 47.437C36.7916 47.3771 36.7747 47.3094 36.7747 47.2326C36.7747 47.1454 36.8097 47.0712 36.8797 47.01C36.9497 46.9489 37.0339 46.9176 37.135 46.9176C37.2361 46.9176 37.319 46.9424 37.3954 46.9905C37.4719 47.04 37.5432 47.1116 37.6092 47.2053L38.1522 46.6911C38.0965 46.6039 38.02 46.5206 37.9228 46.4425C37.8256 46.3644 37.7103 46.2993 37.5781 46.2486C37.446 46.1978 37.2931 46.1731 37.1194 46.1731C36.9043 46.1731 36.7126 46.2212 36.5454 46.3176C36.3782 46.4139 36.2474 46.5414 36.1515 46.7002C36.0556 46.8591 36.0076 47.0335 36.0076 47.2222C36.0076 47.3758 36.0374 47.519 36.0958 47.6492C36.1281 47.7195 36.1709 47.7937 36.2253 47.8705C36.0452 47.972 35.904 48.0943 35.8068 48.2414C35.6863 48.4211 35.6267 48.6267 35.6267 48.8571C35.6267 49.0706 35.6772 49.2633 35.7783 49.4364C35.8794 49.6095 36.0232 49.7462 36.2111 49.8451C36.399 49.9453 36.618 49.9948 36.868 49.9948C37.0274 49.9948 37.179 49.9714 37.319 49.9271C37.4602 49.8815 37.5846 49.8243 37.6922 49.754C37.7401 49.7227 37.7829 49.6915 37.8205 49.659L38.0731 49.9375H39.0126L36.973 47.6362C36.9108 47.5633 36.8616 47.4969 36.8266 47.437ZM37.1894 49.1825C37.1039 49.2346 37.0041 49.2606 36.8901 49.2606C36.789 49.2606 36.7009 49.2411 36.6244 49.2034C36.548 49.1656 36.4884 49.111 36.4469 49.0407C36.4054 48.9704 36.3847 48.8923 36.3847 48.8051C36.3847 48.6931 36.4106 48.5981 36.4625 48.52C36.5052 48.4562 36.5661 48.4015 36.6439 48.3573L37.3086 49.0914C37.2723 49.1266 37.2335 49.1565 37.1907 49.1825H37.1894Z" fill="white"/>
<path id="Vector_10" d="M44.5897 49.154C44.451 49.2113 44.2878 49.2412 44.0999 49.2412C43.9405 49.2412 43.7941 49.2139 43.6619 49.1605C43.5297 49.1059 43.4144 49.0278 43.3172 48.9249C43.22 48.8221 43.1449 48.6997 43.093 48.5579C43.0412 48.416 43.0153 48.2585 43.0153 48.084C43.0153 47.9096 43.0412 47.7612 43.093 47.618C43.1449 47.4749 43.22 47.3525 43.3172 47.251C43.4144 47.1494 43.5297 47.0713 43.6619 47.018C43.7941 46.9633 43.9405 46.9373 44.0999 46.9373C44.2813 46.9373 44.4394 46.9672 44.5767 47.0258C44.7141 47.0857 44.8294 47.1677 44.924 47.2718L45.4773 46.7108C45.3063 46.5468 45.108 46.4179 44.8799 46.3229C44.6519 46.2292 44.3927 46.181 44.0999 46.181C43.807 46.181 43.566 46.2292 43.3328 46.3255C43.0995 46.4218 42.8948 46.5546 42.7198 46.7264C42.5436 46.8982 42.4076 47.1 42.3104 47.3317C42.2132 47.5647 42.1639 47.8146 42.1639 48.084C42.1639 48.3535 42.2132 48.6034 42.3104 48.8364C42.4076 49.0694 42.5436 49.2725 42.7198 49.4469C42.8948 49.6213 43.1008 49.7567 43.3353 49.853C43.5699 49.9493 43.8252 49.9975 44.0999 49.9975C44.4031 49.9975 44.6687 49.9507 44.8981 49.8582C45.1274 49.7658 45.3296 49.6356 45.5032 49.4677L44.9447 48.9067C44.8475 49.0147 44.7296 49.0981 44.5897 49.1553V49.154Z" fill="white"/>
<path id="Vector_11" d="M50.0735 46.7224C49.896 46.5493 49.69 46.4152 49.4554 46.3189C49.2209 46.2226 48.9656 46.1744 48.6909 46.1744C48.4162 46.1744 48.1557 46.2226 47.9186 46.3189C47.6815 46.4152 47.4767 46.5493 47.3031 46.7224C47.1295 46.8955 46.9934 47.0973 46.8962 47.3277C46.799 47.5581 46.7498 47.8093 46.7498 48.0827C46.7498 48.356 46.799 48.602 46.8962 48.835C46.9934 49.068 47.1308 49.2711 47.3083 49.4455C47.4858 49.6199 47.6931 49.7566 47.929 49.8542C48.1648 49.9519 48.4227 50.0013 48.7013 50.0013C48.9799 50.0013 49.2299 49.9519 49.4632 49.8542C49.6964 49.7566 49.8999 49.6212 50.0735 49.4481C50.2471 49.275 50.3832 49.0732 50.4804 48.8402C50.5776 48.6072 50.6268 48.3573 50.6268 48.0879C50.6268 47.8184 50.5789 47.5633 50.483 47.3303C50.3871 47.0973 50.251 46.8955 50.0735 46.7224ZM49.6485 48.6892C49.5565 48.8637 49.4282 49.0003 49.2649 49.098C49.1017 49.1956 48.9099 49.245 48.6909 49.245C48.5276 49.245 48.3786 49.2177 48.2451 49.1643C48.1117 49.111 47.9951 49.0316 47.8979 48.9287C47.8007 48.8259 47.7255 48.7022 47.6737 48.5591C47.6219 48.4159 47.5959 48.2571 47.5959 48.0827C47.5959 47.8523 47.6413 47.6505 47.732 47.4774C47.8227 47.3042 47.9497 47.1702 48.1156 47.0739C48.2801 46.9775 48.4732 46.9294 48.6922 46.9294C48.8516 46.9294 49.0006 46.9567 49.1354 47.0101C49.2714 47.0647 49.388 47.1428 49.4852 47.2457C49.5824 47.3485 49.6576 47.4709 49.7094 47.6127C49.7612 47.7546 49.7871 47.9108 49.7871 48.0813C49.7871 48.3117 49.7405 48.5148 49.6485 48.6892Z" fill="white"/>
<path id="Vector_12" d="M54.0257 48.2649L52.7286 46.2369H52.1338V49.9375H52.9528V47.8887L53.751 49.1409H54.2939L55.0921 47.8887V49.9375H55.9111V46.2369H55.3163L54.0257 48.2649Z" fill="white"/>
<path id="Vector_13" d="M59.7803 46.3787C59.5911 46.285 59.3799 46.2369 59.1467 46.2369H57.6021V49.9375H58.4262V48.5903H59.1467C59.3799 48.5903 59.5911 48.5434 59.7803 48.4484C59.9695 48.3534 60.1198 48.2193 60.2287 48.0423C60.3375 47.8652 60.3932 47.657 60.3932 47.4162C60.3932 47.1754 60.3388 46.9606 60.2287 46.7849C60.1185 46.6091 59.9695 46.4725 59.7803 46.3787ZM59.4952 47.7038C59.446 47.7845 59.3812 47.8444 59.2996 47.8848C59.2179 47.9251 59.1272 47.9447 59.0262 47.9447H58.4262V46.8812H59.0262C59.1272 46.8812 59.2179 46.902 59.2996 46.9411C59.3812 46.9801 59.446 47.0413 59.4952 47.122C59.5445 47.2027 59.5678 47.3003 59.5678 47.4149C59.5678 47.5294 59.5432 47.6231 59.4952 47.7025V47.7038Z" fill="white"/>
<path id="Vector_14" d="M62.6933 46.2369H61.8691V49.9375H62.5054H62.6933H64.326V49.2138H62.6933V46.2369Z" fill="white"/>
<path id="Vector_15" d="M66.6118 46.2369H65.7877V49.9375H66.6118V46.2369Z" fill="white"/>
<path id="Vector_16" d="M69.4923 46.2369L68.0371 49.9375H68.8872L69.1321 49.2724H70.573L70.8114 49.9375H71.6822L70.2374 46.2369H69.491H69.4923ZM69.3783 48.6007L69.8603 47.2873L70.332 48.6007H69.3783Z" fill="white"/>
<path id="Vector_17" d="M75.4232 48.4796L73.6816 46.2369H73.1024V49.9375H73.9266V47.7221L75.6435 49.9375H76.2538V46.2369H75.4232V48.4796Z" fill="white"/>
<path id="Vector_18" d="M80.1814 49.154C80.0428 49.2113 79.8782 49.2412 79.6903 49.2412C79.5309 49.2412 79.3845 49.2139 79.2523 49.1605C79.1202 49.1059 79.0048 49.0278 78.9077 48.9249C78.8105 48.8221 78.7353 48.6997 78.6835 48.5579C78.6316 48.416 78.6057 48.2585 78.6057 48.084C78.6057 47.9096 78.6316 47.7612 78.6835 47.618C78.7353 47.4749 78.8105 47.3525 78.9077 47.251C79.0048 47.1494 79.1202 47.0713 79.2523 47.018C79.3845 46.9633 79.5309 46.9373 79.6903 46.9373C79.8717 46.9373 80.0298 46.9672 80.1672 47.0258C80.3045 47.0857 80.4198 47.1677 80.5144 47.2718L81.0677 46.7108C80.8967 46.5468 80.6984 46.4179 80.4704 46.3229C80.2423 46.2292 79.9832 46.181 79.6903 46.181C79.3975 46.181 79.1564 46.2292 78.9232 46.3255C78.69 46.4218 78.4852 46.5546 78.3103 46.7264C78.1354 46.8982 77.998 47.1 77.9008 47.3317C77.8036 47.5647 77.7544 47.8146 77.7544 48.084C77.7544 48.3535 77.8036 48.6034 77.9008 48.8364C77.998 49.0694 78.1341 49.2725 78.3103 49.4469C78.4865 49.6213 78.6913 49.7567 78.9258 49.853C79.1603 49.9493 79.4156 49.9975 79.6903 49.9975C79.9922 49.9975 80.2592 49.9507 80.4885 49.8582C80.7179 49.7658 80.92 49.6356 81.0937 49.4677L80.5352 48.9067C80.438 49.0147 80.3201 49.0981 80.1801 49.1553L80.1814 49.154Z" fill="white"/>
<path id="Vector_19" d="M83.3535 48.3963H84.9978V47.6986H83.3535V46.9502H85.1533V46.2369H83.3535H83.1604H82.5294V49.9375H83.1604H83.3535H85.1844V49.2242H83.3535V48.3963Z" fill="white"/>
<path id="Vector_20" d="M89.5357 46.2369H88.7116V49.9375H89.3478H89.5357H91.1684V49.2138H89.5357V46.2369Z" fill="white"/>
<path id="Vector_21" d="M92.38 46.9606H93.532V49.9375H94.3613V46.9606H95.5094V46.2369H92.38V46.9606Z" fill="white"/>
<path id="Vector_22" d="M100.231 47.3381C100.134 47.1142 99.9967 46.9202 99.8218 46.7536C99.6455 46.5883 99.4408 46.4607 99.2063 46.3709C98.9717 46.2824 98.7152 46.2369 98.4366 46.2369H96.9555V49.9375H98.4482C98.7229 49.9375 98.9782 49.892 99.2128 49.8008C99.4473 49.7097 99.652 49.5822 99.8257 49.4155C99.9993 49.2502 100.135 49.0537 100.233 48.8285C100.33 48.6033 100.379 48.356 100.379 48.0865C100.379 47.8171 100.33 47.5607 100.233 47.3368L100.231 47.3381ZM99.3916 48.6866C99.3009 48.8558 99.1739 48.986 99.008 49.0771C98.8422 49.1682 98.6491 49.2138 98.4262 49.2138H97.7796V46.9606H98.4262C98.6452 46.9606 98.837 47.0048 99.0028 47.0947C99.1674 47.1832 99.297 47.3133 99.389 47.4826C99.481 47.6518 99.5276 47.8522 99.5276 48.0826C99.5276 48.313 99.4823 48.5187 99.3916 48.6879V48.6866Z" fill="white"/>
</g>
<path id="Vector_23" d="M0.228048 41.7656C-0.0337029 41.7955 -0.0920138 41.4089 0.167146 41.3595C8.5043 39.7714 26.4524 36.8674 47.8473 36.486C70.3099 36.0851 92.424 39.308 101.828 40.8948C102.087 40.939 102.039 41.3256 101.777 41.3035C87.281 40.0669 42.1652 36.9507 0.228048 41.7656Z" fill="#FF6D24"/>
<g id="Group_2">
<path id="Vector_24" d="M100.484 12.4102C100.484 12.4102 81.4188 16.0718 74.8582 32.3675H56.9049C56.9049 32.3675 68.1499 14.3328 100.484 12.4102Z" fill="url(#paint0_linear_0_515)"/>
<g id="Group_3">
<path id="Vector_25" d="M73.5197 23.0032L75.4698 23.3456C76.8214 22.2079 78.2454 21.1548 79.7278 20.1877L77.9396 19.874C76.4028 20.8268 74.9243 21.8721 73.5197 23.0045V23.0032Z" fill="white"/>
<path id="Vector_26" d="M79.2549 19.0852L80.9938 19.3911C81.056 19.3533 81.1156 19.3143 81.1778 19.2778C82.7043 18.3654 84.2851 17.5479 85.9036 16.819L84.3733 16.5417C82.6213 17.2876 80.9083 18.135 79.2549 19.0865V19.0852Z" fill="white"/>
<path id="Vector_27" d="M69.8966 29.0573L67.6588 28.8165C66.7426 29.9451 65.8913 31.1296 65.1151 32.3662H67.5512C67.9996 31.6438 68.4816 30.9409 68.9805 30.2523C69.2772 29.8475 69.5856 29.4504 69.8979 29.0573H69.8966Z" fill="white"/>
<path id="Vector_28" d="M68.4583 27.8611L70.6819 28.1006C71.8533 26.7221 73.1167 25.427 74.4617 24.2203L72.4766 23.8714C71.0434 25.1054 69.6971 26.4358 68.4583 27.8611Z" fill="white"/>
<path id="Vector_29" d="M85.5939 16.0393L87.075 16.3087C88.744 15.6084 90.4519 15.0005 92.1882 14.4772L91.0894 14.2325C89.2351 14.7233 87.3977 15.3285 85.5939 16.0393Z" fill="white"/>
<path id="Vector_30" d="M99.2607 12.6979C97.2626 12.9608 94.4235 13.4164 92.4578 13.8863L93.462 14.1102C94.9237 13.708 96.4035 13.3695 97.8924 13.0845C98.1386 13.0103 98.3692 12.9426 98.5856 12.8814L99.2607 12.6979Z" fill="white"/>
</g>
</g>
<path id="Vector_31" d="M78.0316 7.37139C78.4372 5.89529 78.8545 4.41138 78.1327 2.92357C77.8399 2.32219 77.5185 1.15459 78.0018 0.614391C78.2351 0.352754 79.0812 0.110643 79.457 0.110643L92.5601 0.0741956C93.4128 0.0741956 93.9324 0.803134 93.8248 1.63621C93.7471 2.23107 93.449 2.57862 92.888 2.86369C92.1183 3.2581 91.1633 4.08466 90.895 4.9659L89.2183 10.5136L88.6701 12.4701C85.4993 13.1183 82.4529 13.9488 79.5542 14.9628C78.1664 15.4483 76.8123 15.9781 75.4919 16.5456L75.9597 14.8951L78.0303 7.37139H78.0316ZM95.3707 20.6732C92.3696 23.067 91.1762 26.3303 89.1172 27.2063C87.6141 27.8507 86.1641 27.8259 84.5054 27.5344L85.1857 24.9883L85.8894 22.3875L86.4984 20.2176C85.0873 21.2225 83.7837 22.3055 82.6019 23.4588C79.9118 26.083 77.836 29.086 76.4223 32.3909L94.8226 32.3727C96.3737 32.3727 97.9662 31.4485 98.4262 29.9294L100.146 24.2047C100.444 23.2076 100.76 22.0166 100.33 20.8802C99.8762 19.6827 96.8285 19.5134 95.372 20.6732H95.3707ZM31.2715 19.0149C29.6906 19.7686 28.1447 20.3088 26.42 20.4428L23.1974 20.6915L18.2267 20.8984C16.4489 20.9713 16.0005 25.2734 16.3115 28.0928H16.2998C16.3944 28.9415 16.9426 29.496 17.3572 30.1286C17.7874 30.7846 17.6047 31.6919 16.927 32.0837C16.5953 32.2751 16.1975 32.3701 15.7867 32.3701H3.46626C3.43386 32.3701 3.40147 32.3688 3.36907 32.3662L1.77783 32.2347C1.29709 32.1957 0.887621 31.8689 0.738605 31.4082L0.621983 31.0463C0.489812 30.6376 0.593475 30.1885 0.891509 29.88C0.901875 29.8696 0.912242 29.8579 0.923904 29.8474C1.10532 29.66 1.31264 29.4986 1.53034 29.3554C2.91295 28.4546 3.68525 27.0723 4.02216 25.4296L5.1495 21.3215L6.9999 14.6673L8.55745 9.05186L9.42822 5.94606C10.102 3.53405 8.28274 2.14777 9.0045 0.676872C9.20016 0.273352 10.2135 0.00650838 10.7214 0.00650838H22.1296L27.064 0L29.3965 0.139279C31.6576 0.278559 33.8722 0.995782 35.5904 2.56951L36.9393 4.23435C37.1596 4.50771 37.4291 5.23664 37.5354 5.58289C39.0385 10.4447 36.0672 16.7344 31.2702 19.0123L31.2715 19.0149ZM26.6105 6.25976C26.3773 5.24445 25.6983 4.57019 24.672 4.49729L22.8993 4.36973C22.5002 4.33979 21.7474 4.82531 21.61 5.31214L18.5545 16.2684C20.6732 16.4206 22.4393 15.7086 23.9062 14.4031C26.2334 12.3308 27.3245 9.37728 26.6092 6.25976H26.6105ZM55.1919 32.3662L48.0845 32.4013L34.7727 32.4261C34.1287 32.4261 33.5016 32.1345 33.2515 31.7088C32.9418 31.1921 32.9534 30.3056 33.3046 29.9958L35.453 28.124C36.2162 27.455 36.456 26.0452 36.7242 25.0612L37.757 21.2993L40.2216 12.4089L42.1432 5.3538C42.6084 3.65771 40.7943 2.13345 41.6418 0.674268C41.8983 0.230397 42.9609 0.0182235 43.5686 0.0234302L62.7995 0.0663855C64.6486 0.0663855 66.4874 0.849995 68.0747 1.6284C71.7859 3.44554 72.6515 7.62652 71.0758 11.3389C70.8724 11.8192 70.3592 12.6028 69.9536 12.9491L68.0747 14.5593C66.9888 15.4886 65.4559 15.7685 64.0655 16.2358L66.7569 18.0712C67.2402 18.3992 67.7832 19.2557 68.0216 19.7907C68.0955 19.9586 68.159 20.1291 68.2147 20.2996C67.3711 20.8164 66.5483 21.3514 65.7462 21.9072C58.7268 26.7716 55.797 31.3964 55.6765 31.5904L55.1945 32.3636L55.1919 32.3662ZM56.6406 12.8827L56.6341 12.8892C57.3028 12.2449 57.9999 11.6982 58.3705 11.0473C59.7609 8.62881 59.9332 4.69124 57.7148 4.52723L55.7102 4.38144C54.7254 4.30855 54.1112 5.15334 53.9207 5.99162L53.0849 9.58294L52.1248 12.7434C51.8021 13.8069 54.4274 13.7769 56.6419 12.8827H56.6406ZM55.6027 23.93C56.1456 22.5815 56.2117 20.9583 55.5962 19.5603C55.3098 18.9042 54.1941 18.4422 53.5372 18.4174L51.5676 18.351C50.9534 18.3328 50.308 19.1047 50.1707 19.6761L49.2934 23.2558L48.2607 26.3433C48.1233 26.7625 48.0754 27.6372 48.4875 27.9236C49.3232 28.4885 54.0011 27.9053 55.6001 23.9313L55.6027 23.93Z" fill="white"/>
</g>
<defs>
<linearGradient id="paint0_linear_0_515" x1="60.6744" y1="36.8817" x2="96.1624" y2="7.23803" gradientUnits="userSpaceOnUse">
<stop stop-color="#0C969C"/>
<stop offset="1" stop-color="#007276"/>
</linearGradient>
<clipPath id="clip0_0_515">
<rect width="102" height="50" fill="white"/>
</clipPath>
</defs>
</svg>
