<svg preserveAspectRatio="none" overflow="visible" style="display: block;" width="23" height="22" viewBox="0 0 23 22" fill="none" xmlns="http://www.w3.org/2000/svg">
<path id="Vector" d="M21.6154 22C20.8519 22 20.2308 21.3694 20.2308 20.5941V17.1236L16.5399 15.0831C16.0375 14.8943 15.8872 14.5729 13.8182 10.1022C12.7382 7.76447 11.4802 5.021 10.7365 3.40223C10.5703 3.04473 10.2143 2.81176 9.82266 2.81176H1.38459C0.621087 2.81176 0 2.18112 0 1.40588C0 0.630637 0.621087 0 1.38459 0H9.82266C11.2864 0 12.6314 0.871647 13.2485 2.21727C16.2036 8.66423 17.6634 11.8014 18.1262 12.7614L21.9794 14.8903C22.6123 15.2437 23 15.9105 23 16.6336V20.5941C23 21.3694 22.3789 22 21.6154 22ZM17.0977 12.3838C17.3271 12.3838 17.5526 12.44 17.7583 12.5565L17.8177 12.5886C17.43 12.3517 16.9078 12.2914 16.4291 12.5605C16.6388 12.444 16.8682 12.3878 17.0977 12.3878V12.3838Z" fill="white"/>
</svg>
